<svg id="Capa_1" enable-background="new 0 0 512 512" height="512" viewBox="0 0 512 512" width="512" xmlns="http://www.w3.org/2000/svg"><g><path d="m441.277 90.5c2.999 0 5.961.229 8.875.647-7.409-13.869-21.438-23.692-37.844-25.197-2.517-24.048-22.91-42.854-47.613-42.854-4.571 0-9.06.645-13.354 1.89-2.256-4.139-5.14-7.96-8.598-11.343-8.996-8.797-20.88-13.643-33.464-13.643-10.174 0-19.825 3.169-27.802 8.871-7.977-5.702-17.628-8.871-27.802-8.871-12.584 0-24.469 4.846-33.463 13.644-3.458 3.382-6.342 7.204-8.598 11.342-4.295-1.246-8.783-1.89-13.354-1.89-24.703 0-45.097 18.807-47.614 42.854-16.329 1.496-30.301 11.232-37.738 24.997 2.443-.292 4.919-.448 7.421-.448h320.948z"/><path d="m441.277 120.5h-320.949c-14.692 0-27.806 9.806-31.892 23.846-4.979 17.11-7.643 34.85-7.931 52.78l-48.448 108.368c-2.075 4.641-1.658 10.017 1.107 14.282 2.766 4.265 7.503 6.84 12.586 6.84h34.729v96.231c0 8.284 6.716 15 15 15h58.964v59.153c0 8.284 6.716 15 15 15h222.462c8.284 0 15-6.716 15-15v-140.832c21.771-17.654 39.852-39.931 52.555-64.828 14.534-28.485 21.865-59.251 21.788-91.443-.045-18.889-2.777-37.627-8.122-55.695-4.13-13.955-17.226-23.702-31.849-23.702zm-260.527 120.375c-8.409 0-14.636-6.873-15-15-.363-8.101 7.154-15 15-15 8.409 0 14.636 6.873 15 15 .363 8.101-7.154 15-15 15z"/></g></svg>