<svg id="Capa_1" enable-background="new 0 0 512 512" height="512" viewBox="0 0 512 512" width="512" xmlns="http://www.w3.org/2000/svg"><g><path d="m436 61c-8.291 0-15 6.709-15 15v17.763c-17.422 6.213-30 22.707-30 42.237v105h90v-105c0-19.53-12.578-36.024-30-42.237v-17.763c0-8.291-6.709-15-15-15z"/><path d="m436 512c8.291 0 15-6.709 15-15v-25.769c18.896-21.339 30-49.072 30-77.653v-122.578h-90v122.578c0 28.581 11.104 56.316 30 77.653v25.769c0 8.291 6.709 15 15 15z"/><path d="m196 0c-8.291 0-15 6.709-15 15v15h-15c-16.569 0-30 13.431-30 30v15c0 8.284 6.716 15 15 15h90c8.284 0 15-6.716 15-15v-15c0-16.569-13.431-30-30-30h-15v-15c0-8.291-6.709-15-15-15z"/><path d="m31 75v422c0 8.291 6.709 15 15 15h300c8.291 0 15-6.709 15-15v-422c0-8.291-6.709-15-15-15h-60v15c0 24.814-20.186 45-45 45h-90c-24.814 0-45-20.186-45-45v-15h-60c-8.291 0-15 6.709-15 15zm136.816 356.605c5.859 5.859 5.859 15.352 0 21.211s-15.352 5.859-21.211 0l-10.605-10.605-10.605 10.605c-5.859 5.859-15.352 5.859-21.211 0s-5.859-15.352 0-21.211l10.605-10.605-10.605-10.605c-5.859-5.859-5.859-15.352 0-21.211s15.352-5.859 21.211 0l10.605 10.605 10.605-10.605c5.859-5.859 15.352-5.859 21.211 0s5.859 15.352 0 21.211l-10.605 10.605zm118.184 4.395h-60c-8.291 0-15-6.709-15-15s6.709-15 15-15h60c8.291 0 15 6.709 15 15s-6.709 15-15 15zm-30-210h30c8.291 0 15 6.709 15 15s-6.709 15-15 15h-30c-8.291 0-15-6.709-15-15s6.709-15 15-15zm-30 90h60c8.291 0 15 6.709 15 15s-6.709 15-15 15h-60c-8.291 0-15-6.709-15-15s6.709-15 15-15zm-130.605-115.605c5.859-5.859 15.352-5.859 21.211 0l19.394 19.394 49.395-49.395c5.859-5.859 15.352-5.859 21.211 0s5.859 15.352 0 21.211l-60 60c-2.93 2.93-6.768 4.395-10.605 4.395s-7.676-1.465-10.605-4.395l-30-30c-5.861-5.859-5.861-15.351-.001-21.21zm0 90c5.859-5.859 15.352-5.859 21.211 0l19.394 19.394 49.395-49.395c5.859-5.859 15.352-5.859 21.211 0s5.859 15.352 0 21.211l-60 60c-2.93 2.93-6.768 4.395-10.605 4.395s-7.676-1.465-10.605-4.395l-30-30c-5.861-5.859-5.861-15.351-.001-21.21z"/></g></svg>