<svg id="Capa_1" enable-background="new 0 0 512 512" height="512" viewBox="0 0 512 512" width="512" xmlns="http://www.w3.org/2000/svg"><g><path d="m391 452h-150v-15c0-8.291-6.709-15-15-15s-15 6.709-15 15v60c0 8.291 6.709 15 15 15s15-6.709 15-15v-15h150v15c0 8.291 6.709 15 15 15s15-6.709 15-15v-60c0-8.291-6.709-15-15-15s-15 6.709-15 15z"/><path d="m497 91h-76v286c0 8.284 6.716 15 15 15h16c5.015 0 9.699-2.507 12.48-6.68l45-91.002c1.642-2.463 2.52-5.358 2.52-8.318v-180c0-8.284-6.716-15-15-15z"/><path d="m241 377v-106h-150v45c0 8.291 6.709 15 15 15h50.728l25.854 52.709c2.549 5.083 7.734 8.291 13.418 8.291h30c8.291 0 15-6.709 15-15z"/><path d="m241 15c0-8.291-6.709-15-15-15h-30c-5.684 0-10.869 3.208-13.418 8.291l-25.854 52.709h84.272z"/><path d="m15 241h61v-75c0-8.291 6.709-15 15-15s15 6.709 15 15v75h30v-45c0-8.291 6.709-15 15-15s15 6.709 15 15v45h30v-75c0-8.291 6.709-15 15-15s15 6.709 15 15v75h30v-45c0-8.291 6.709-15 15-15s15 6.709 15 15v45h30v-75c0-8.291 6.709-15 15-15s15 6.709 15 15v75h45v-150h-376c-8.291 0-15 6.709-15 15v120c0 8.291 6.709 15 15 15z"/></g></svg>