<svg id="Layer_1" enable-background="new 0 0 511.925 511.925" height="512" viewBox="0 0 511.925 511.925" width="512" xmlns="http://www.w3.org/2000/svg"><g><path d="m203.457 118.396c0-24.458-12.951-46.932-33.272-59.417-11.725 16.876-18.61 37.356-18.61 59.417 0 22.06 6.88 42.541 18.605 59.414 20.324-12.493 33.277-34.966 33.277-59.414z"/><path d="m308.469 118.396c0 24.448 12.952 46.92 33.277 59.414 11.724-16.874 18.604-37.354 18.604-59.414 0-22.061-6.885-42.541-18.61-59.417-20.321 12.486-33.271 34.959-33.271 59.417z"/><path d="m474.944 407.914v-70.863h-66.983v-85.444h-136.998v-29.905c18.727-2.707 35.858-10.406 50.004-21.695-26.118-18.376-42.499-48.743-42.499-81.611 0-32.88 16.379-63.249 42.496-81.618-17.847-14.243-40.446-22.771-65.001-22.771-24.556 0-47.155 8.528-65.002 22.77 26.116 18.369 42.496 48.737 42.496 81.618 0 32.868-16.381 63.235-42.499 81.611 14.146 11.289 31.278 18.988 50.005 21.695v29.905h-136.999v85.444h-66.984v70.863h-36.98v90.003h103.962v-90.003h-36.982v-40.863h103.967v40.863h-36.981v90.003h103.962v-90.003h-36.98v-70.863h-66.983v-55.444h243.997v55.444h-66.982v70.863h-36.981v90.003h103.962v-90.003h-36.98v-40.863h103.966v40.863h-36.981v90.003h103.962v-90.003h-36.984z"/></g></svg>